<mxfile host="65bd71144e">
    <diagram id="50tXk64dEVkE1NKGoQQv" name="Page-1">
        <mxGraphModel dx="1191" dy="1818" grid="1" gridSize="10" guides="1" tooltips="1" connect="1" arrows="1" fold="1" page="1" pageScale="1" pageWidth="850" pageHeight="1100" math="0" shadow="0">
            <root>
                <mxCell id="0"/>
                <mxCell id="1" parent="0"/>
                <mxCell id="2" value="" style="whiteSpace=wrap;html=1;fillColor=none;" parent="1" vertex="1">
                    <mxGeometry x="31" y="20" width="630" height="480" as="geometry"/>
                </mxCell>
                <mxCell id="3" value="Patient Registration Page" style="text;html=1;align=center;verticalAlign=middle;resizable=0;points=[];autosize=1;strokeColor=none;fillColor=none;" parent="1" vertex="1">
                    <mxGeometry x="267" y="-2" width="160" height="30" as="geometry"/>
                </mxCell>
                <mxCell id="4" value="&lt;font style=&quot;font-size: 18px;&quot;&gt;Patient Registration&lt;/font&gt;" style="text;strokeColor=none;align=center;fillColor=none;html=1;verticalAlign=middle;whiteSpace=wrap;rounded=0;" parent="1" vertex="1">
                    <mxGeometry x="265" y="62" width="160" height="40" as="geometry"/>
                </mxCell>
                <mxCell id="5" value="&lt;font style=&quot;font-size: 12px;&quot;&gt;Email&lt;/font&gt;" style="whiteSpace=wrap;html=1;fontSize=18;" parent="1" vertex="1">
                    <mxGeometry x="235" y="111" width="230" height="30" as="geometry"/>
                </mxCell>
                <mxCell id="6" value="Nav Bar" style="whiteSpace=wrap;html=1;fontSize=12;fillColor=#333333;" parent="1" vertex="1">
                    <mxGeometry x="30" y="20" width="630" height="30" as="geometry"/>
                </mxCell>
                <mxCell id="7" value="&lt;font style=&quot;font-size: 12px;&quot;&gt;Password&lt;/font&gt;" style="whiteSpace=wrap;html=1;fontSize=18;" parent="1" vertex="1">
                    <mxGeometry x="235" y="160" width="230" height="30" as="geometry"/>
                </mxCell>
                <mxCell id="8" value="&lt;font style=&quot;font-size: 12px;&quot;&gt;First Name&lt;/font&gt;" style="whiteSpace=wrap;html=1;fontSize=18;" parent="1" vertex="1">
                    <mxGeometry x="235" y="211" width="230" height="30" as="geometry"/>
                </mxCell>
                <mxCell id="9" value="&lt;font style=&quot;font-size: 12px;&quot;&gt;Last Name&lt;/font&gt;" style="whiteSpace=wrap;html=1;fontSize=18;" parent="1" vertex="1">
                    <mxGeometry x="235" y="260" width="230" height="30" as="geometry"/>
                </mxCell>
                <mxCell id="10" value="&lt;font style=&quot;font-size: 12px;&quot;&gt;Phone&lt;/font&gt;" style="whiteSpace=wrap;html=1;fontSize=18;" parent="1" vertex="1">
                    <mxGeometry x="235" y="310" width="230" height="30" as="geometry"/>
                </mxCell>
                <mxCell id="13" value="&lt;font style=&quot;font-size: 12px;&quot;&gt;Date of Birth&lt;/font&gt;" style="whiteSpace=wrap;html=1;fontSize=18;" parent="1" vertex="1">
                    <mxGeometry x="235" y="360" width="230" height="30" as="geometry"/>
                </mxCell>
                <mxCell id="14" value="" style="html=1;verticalLabelPosition=bottom;align=center;labelBackgroundColor=#ffffff;verticalAlign=top;strokeWidth=2;strokeColor=#0080F0;shadow=0;dashed=0;shape=mxgraph.ios7.icons.calendar;fontSize=12;fillColor=#333333;" parent="1" vertex="1">
                    <mxGeometry x="440" y="366" width="15" height="18" as="geometry"/>
                </mxCell>
                <mxCell id="15" value="" style="shape=ellipse;fillColor=#FFFFFF;strokeColor=none;html=1;sketch=0;fontSize=12;" parent="1" vertex="1">
                    <mxGeometry x="255" y="420" width="10" height="10" as="geometry"/>
                </mxCell>
                <mxCell id="16" value="Male" style="text;strokeColor=none;align=center;fillColor=none;html=1;verticalAlign=middle;whiteSpace=wrap;rounded=0;fontSize=12;" parent="1" vertex="1">
                    <mxGeometry x="265" y="410" width="60" height="30" as="geometry"/>
                </mxCell>
                <mxCell id="17" value="" style="shape=ellipse;fillColor=#FFFFFF;strokeColor=none;html=1;sketch=0;fontSize=12;" parent="1" vertex="1">
                    <mxGeometry x="376" y="420" width="10" height="10" as="geometry"/>
                </mxCell>
                <mxCell id="18" value="Female" style="text;strokeColor=none;align=center;fillColor=none;html=1;verticalAlign=middle;whiteSpace=wrap;rounded=0;fontSize=12;" parent="1" vertex="1">
                    <mxGeometry x="386" y="410" width="60" height="30" as="geometry"/>
                </mxCell>
                <mxCell id="19" value="Register" style="whiteSpace=wrap;html=1;fontSize=12;fillColor=#004C99;" parent="1" vertex="1">
                    <mxGeometry x="304" y="450" width="100" height="30" as="geometry"/>
                </mxCell>
                <mxCell id="20" value="" style="whiteSpace=wrap;html=1;fillColor=none;" parent="1" vertex="1">
                    <mxGeometry x="911" y="20" width="630" height="530" as="geometry"/>
                </mxCell>
                <mxCell id="21" value="Doctor Registration Page" style="text;html=1;align=center;verticalAlign=middle;resizable=0;points=[];autosize=1;strokeColor=none;fillColor=none;" parent="1" vertex="1">
                    <mxGeometry x="1147" y="-2" width="160" height="30" as="geometry"/>
                </mxCell>
                <mxCell id="22" value="&lt;font style=&quot;font-size: 18px;&quot;&gt;Doctor Registration&lt;/font&gt;" style="text;strokeColor=none;align=center;fillColor=none;html=1;verticalAlign=middle;whiteSpace=wrap;rounded=0;" parent="1" vertex="1">
                    <mxGeometry x="1145" y="62" width="160" height="40" as="geometry"/>
                </mxCell>
                <mxCell id="23" value="&lt;font style=&quot;font-size: 12px;&quot;&gt;Email&lt;/font&gt;" style="whiteSpace=wrap;html=1;fontSize=18;" parent="1" vertex="1">
                    <mxGeometry x="1115" y="111" width="230" height="30" as="geometry"/>
                </mxCell>
                <mxCell id="24" value="Nav Bar" style="whiteSpace=wrap;html=1;fontSize=12;fillColor=#333333;" parent="1" vertex="1">
                    <mxGeometry x="910" y="20" width="630" height="30" as="geometry"/>
                </mxCell>
                <mxCell id="25" value="&lt;font style=&quot;font-size: 12px;&quot;&gt;Password&lt;/font&gt;" style="whiteSpace=wrap;html=1;fontSize=18;" parent="1" vertex="1">
                    <mxGeometry x="1115" y="160" width="230" height="30" as="geometry"/>
                </mxCell>
                <mxCell id="26" value="&lt;font style=&quot;font-size: 12px;&quot;&gt;First Name&lt;/font&gt;" style="whiteSpace=wrap;html=1;fontSize=18;" parent="1" vertex="1">
                    <mxGeometry x="1115" y="211" width="230" height="30" as="geometry"/>
                </mxCell>
                <mxCell id="27" value="&lt;font style=&quot;font-size: 12px;&quot;&gt;Last Name&lt;/font&gt;" style="whiteSpace=wrap;html=1;fontSize=18;" parent="1" vertex="1">
                    <mxGeometry x="1115" y="260" width="230" height="30" as="geometry"/>
                </mxCell>
                <mxCell id="28" value="&lt;font style=&quot;font-size: 12px;&quot;&gt;Phone&lt;/font&gt;" style="whiteSpace=wrap;html=1;fontSize=18;" parent="1" vertex="1">
                    <mxGeometry x="1115" y="357" width="230" height="30" as="geometry"/>
                </mxCell>
                <mxCell id="29" value="&lt;font style=&quot;font-size: 12px;&quot;&gt;Date of Birth&lt;/font&gt;" style="whiteSpace=wrap;html=1;fontSize=18;" parent="1" vertex="1">
                    <mxGeometry x="1115" y="407" width="230" height="30" as="geometry"/>
                </mxCell>
                <mxCell id="30" value="" style="html=1;verticalLabelPosition=bottom;align=center;labelBackgroundColor=#ffffff;verticalAlign=top;strokeWidth=2;strokeColor=#0080F0;shadow=0;dashed=0;shape=mxgraph.ios7.icons.calendar;fontSize=12;fillColor=#333333;" parent="1" vertex="1">
                    <mxGeometry x="1320" y="413" width="15" height="18" as="geometry"/>
                </mxCell>
                <mxCell id="31" value="" style="shape=ellipse;fillColor=#FFFFFF;strokeColor=none;html=1;sketch=0;fontSize=12;" parent="1" vertex="1">
                    <mxGeometry x="1135" y="467" width="10" height="10" as="geometry"/>
                </mxCell>
                <mxCell id="32" value="Male" style="text;strokeColor=none;align=center;fillColor=none;html=1;verticalAlign=middle;whiteSpace=wrap;rounded=0;fontSize=12;" parent="1" vertex="1">
                    <mxGeometry x="1145" y="457" width="60" height="30" as="geometry"/>
                </mxCell>
                <mxCell id="33" value="" style="shape=ellipse;fillColor=#FFFFFF;strokeColor=none;html=1;sketch=0;fontSize=12;" parent="1" vertex="1">
                    <mxGeometry x="1256" y="467" width="10" height="10" as="geometry"/>
                </mxCell>
                <mxCell id="34" value="Female" style="text;strokeColor=none;align=center;fillColor=none;html=1;verticalAlign=middle;whiteSpace=wrap;rounded=0;fontSize=12;" parent="1" vertex="1">
                    <mxGeometry x="1266" y="457" width="60" height="30" as="geometry"/>
                </mxCell>
                <mxCell id="35" value="Register" style="whiteSpace=wrap;html=1;fontSize=12;fillColor=#004C99;" parent="1" vertex="1">
                    <mxGeometry x="1184" y="497" width="100" height="30" as="geometry"/>
                </mxCell>
                <mxCell id="36" value="&lt;font style=&quot;font-size: 12px;&quot;&gt;Specialization&lt;/font&gt;" style="whiteSpace=wrap;html=1;fontSize=18;" parent="1" vertex="1">
                    <mxGeometry x="1115" y="308" width="230" height="30" as="geometry"/>
                </mxCell>
                <mxCell id="39" value="" style="whiteSpace=wrap;html=1;fillColor=none;" parent="1" vertex="1">
                    <mxGeometry x="30" y="600" width="630" height="480" as="geometry"/>
                </mxCell>
                <mxCell id="40" value="Login Page (Same UI for Doctors &amp;amp; Patients)" style="text;html=1;align=center;verticalAlign=middle;resizable=0;points=[];autosize=1;strokeColor=none;fillColor=none;" parent="1" vertex="1">
                    <mxGeometry x="216" y="580" width="260" height="30" as="geometry"/>
                </mxCell>
                <mxCell id="41" value="&lt;font style=&quot;font-size: 18px;&quot;&gt;Welcome Back!&lt;/font&gt;" style="text;strokeColor=none;align=center;fillColor=none;html=1;verticalAlign=middle;whiteSpace=wrap;rounded=0;" parent="1" vertex="1">
                    <mxGeometry x="264" y="740" width="160" height="40" as="geometry"/>
                </mxCell>
                <mxCell id="42" value="&lt;font style=&quot;font-size: 12px;&quot;&gt;Email&lt;/font&gt;" style="whiteSpace=wrap;html=1;fontSize=18;" parent="1" vertex="1">
                    <mxGeometry x="231" y="789" width="230" height="30" as="geometry"/>
                </mxCell>
                <mxCell id="43" value="Nav Bar" style="whiteSpace=wrap;html=1;fontSize=12;fillColor=#333333;" parent="1" vertex="1">
                    <mxGeometry x="29" y="600" width="630" height="30" as="geometry"/>
                </mxCell>
                <mxCell id="44" value="&lt;font style=&quot;font-size: 12px;&quot;&gt;Password&lt;/font&gt;" style="whiteSpace=wrap;html=1;fontSize=18;" parent="1" vertex="1">
                    <mxGeometry x="231" y="838" width="230" height="30" as="geometry"/>
                </mxCell>
                <mxCell id="54" value="Login" style="whiteSpace=wrap;html=1;fontSize=12;fillColor=#004C99;" parent="1" vertex="1">
                    <mxGeometry x="300" y="894" width="100" height="30" as="geometry"/>
                </mxCell>
                <mxCell id="80" style="edgeStyle=none;html=1;exitX=1;exitY=0.5;exitDx=0;exitDy=0;fontSize=12;" parent="1" source="61" edge="1">
                    <mxGeometry relative="1" as="geometry">
                        <mxPoint x="1090" y="1600" as="targetPoint"/>
                    </mxGeometry>
                </mxCell>
                <mxCell id="61" value="" style="whiteSpace=wrap;html=1;fillColor=none;" parent="1" vertex="1">
                    <mxGeometry x="31" y="1360" width="630" height="480" as="geometry"/>
                </mxCell>
                <mxCell id="62" value="Doctor Details Page" style="text;html=1;align=center;verticalAlign=middle;resizable=0;points=[];autosize=1;strokeColor=none;fillColor=none;" parent="1" vertex="1">
                    <mxGeometry x="282" y="1338" width="130" height="30" as="geometry"/>
                </mxCell>
                <mxCell id="63" value="&lt;font style=&quot;font-size: 18px;&quot;&gt;Select Your Doctor&lt;/font&gt;" style="text;strokeColor=none;align=center;fillColor=none;html=1;verticalAlign=middle;whiteSpace=wrap;rounded=0;" parent="1" vertex="1">
                    <mxGeometry x="274" y="1420" width="160" height="40" as="geometry"/>
                </mxCell>
                <mxCell id="64" value="&lt;font style=&quot;font-size: 12px;&quot;&gt;Search By Name&lt;/font&gt;" style="whiteSpace=wrap;html=1;fontSize=18;" parent="1" vertex="1">
                    <mxGeometry x="150" y="1470" width="190" height="30" as="geometry"/>
                </mxCell>
                <mxCell id="65" value="Nav Bar" style="whiteSpace=wrap;html=1;fontSize=12;fillColor=#333333;" parent="1" vertex="1">
                    <mxGeometry x="30" y="1360" width="630" height="30" as="geometry"/>
                </mxCell>
                <mxCell id="66" value="&lt;font style=&quot;font-size: 12px;&quot;&gt;Search By Specilization&lt;/font&gt;" style="whiteSpace=wrap;html=1;fontSize=18;" parent="1" vertex="1">
                    <mxGeometry x="363" y="1470" width="187" height="30" as="geometry"/>
                </mxCell>
                <mxCell id="67" value="Search" style="whiteSpace=wrap;html=1;fontSize=12;fillColor=#004C99;" parent="1" vertex="1">
                    <mxGeometry x="304" y="1520" width="100" height="30" as="geometry"/>
                </mxCell>
                <mxCell id="68" value="&lt;font style=&quot;font-size: 36px;&quot;&gt;Channeling Process&lt;/font&gt;" style="text;html=1;align=center;verticalAlign=middle;resizable=0;points=[];autosize=1;strokeColor=none;fillColor=none;fontSize=12;" parent="1" vertex="1">
                    <mxGeometry x="690" y="1230" width="350" height="60" as="geometry"/>
                </mxCell>
                <mxCell id="69" value="&lt;font style=&quot;font-size: 12px;&quot;&gt;&lt;b&gt;Doctor's Name&lt;/b&gt;&lt;/font&gt;" style="text;strokeColor=none;align=center;fillColor=none;html=1;verticalAlign=middle;whiteSpace=wrap;rounded=0;fontSize=36;" parent="1" vertex="1">
                    <mxGeometry x="180" y="1570" width="110" height="40" as="geometry"/>
                </mxCell>
                <mxCell id="70" value="&lt;span style=&quot;font-size: 12px;&quot;&gt;&lt;b&gt;Specialization&lt;/b&gt;&lt;/span&gt;" style="text;strokeColor=none;align=center;fillColor=none;html=1;verticalAlign=middle;whiteSpace=wrap;rounded=0;fontSize=36;" parent="1" vertex="1">
                    <mxGeometry x="400" y="1570" width="110" height="40" as="geometry"/>
                </mxCell>
                <mxCell id="73" value="" style="endArrow=none;html=1;fontSize=12;" parent="1" edge="1">
                    <mxGeometry width="50" height="50" relative="1" as="geometry">
                        <mxPoint x="594" y="1610" as="sourcePoint"/>
                        <mxPoint x="114" y="1610" as="targetPoint"/>
                    </mxGeometry>
                </mxCell>
                <mxCell id="74" value="" style="whiteSpace=wrap;html=1;fontSize=12;fillColor=none;" parent="1" vertex="1">
                    <mxGeometry x="116.5" y="1620" width="475" height="40" as="geometry"/>
                </mxCell>
                <mxCell id="75" value="Doctor 1 Name" style="text;strokeColor=none;align=center;fillColor=none;html=1;verticalAlign=middle;whiteSpace=wrap;rounded=0;fontSize=12;" parent="1" vertex="1">
                    <mxGeometry x="172" y="1625" width="110" height="30" as="geometry"/>
                </mxCell>
                <mxCell id="76" value="Doctor 1 Specialization" style="text;strokeColor=none;align=center;fillColor=none;html=1;verticalAlign=middle;whiteSpace=wrap;rounded=0;fontSize=12;" parent="1" vertex="1">
                    <mxGeometry x="412" y="1625" width="110" height="30" as="geometry"/>
                </mxCell>
                <mxCell id="77" value="" style="whiteSpace=wrap;html=1;fontSize=12;fillColor=none;" parent="1" vertex="1">
                    <mxGeometry x="116.5" y="1680" width="475" height="40" as="geometry"/>
                </mxCell>
                <mxCell id="78" value="Doctor 2 Name" style="text;strokeColor=none;align=center;fillColor=none;html=1;verticalAlign=middle;whiteSpace=wrap;rounded=0;fontSize=12;" parent="1" vertex="1">
                    <mxGeometry x="172" y="1685" width="110" height="30" as="geometry"/>
                </mxCell>
                <mxCell id="79" value="Doctor 2 Specialization" style="text;strokeColor=none;align=center;fillColor=none;html=1;verticalAlign=middle;whiteSpace=wrap;rounded=0;fontSize=12;" parent="1" vertex="1">
                    <mxGeometry x="412" y="1685" width="110" height="30" as="geometry"/>
                </mxCell>
                <mxCell id="81" value="By Clicking on Doctor's Name" style="text;html=1;align=center;verticalAlign=middle;resizable=0;points=[];autosize=1;strokeColor=none;fillColor=none;fontSize=12;" parent="1" vertex="1">
                    <mxGeometry x="870" y="1570" width="180" height="30" as="geometry"/>
                </mxCell>
                <mxCell id="84" value="" style="whiteSpace=wrap;html=1;fillColor=none;" parent="1" vertex="1">
                    <mxGeometry x="1099" y="1360" width="630" height="480" as="geometry"/>
                </mxCell>
                <mxCell id="85" value="Channel Page" style="text;html=1;align=center;verticalAlign=middle;resizable=0;points=[];autosize=1;strokeColor=none;fillColor=none;" parent="1" vertex="1">
                    <mxGeometry x="1365" y="1338" width="100" height="30" as="geometry"/>
                </mxCell>
                <mxCell id="86" value="&lt;span style=&quot;font-size: 18px;&quot;&gt;Enter Appointment Details&lt;/span&gt;" style="text;strokeColor=none;align=center;fillColor=none;html=1;verticalAlign=middle;whiteSpace=wrap;rounded=0;" parent="1" vertex="1">
                    <mxGeometry x="1301.5" y="1500" width="226" height="40" as="geometry"/>
                </mxCell>
                <mxCell id="87" value="&lt;font style=&quot;font-size: 12px;&quot;&gt;Description&lt;/font&gt;" style="whiteSpace=wrap;html=1;fontSize=18;" parent="1" vertex="1">
                    <mxGeometry x="1322" y="1550" width="190" height="30" as="geometry"/>
                </mxCell>
                <mxCell id="88" value="Nav Bar" style="whiteSpace=wrap;html=1;fontSize=12;fillColor=#333333;" parent="1" vertex="1">
                    <mxGeometry x="1098" y="1360" width="630" height="30" as="geometry"/>
                </mxCell>
                <mxCell id="89" value="&lt;font style=&quot;font-size: 12px;&quot;&gt;Date&lt;/font&gt;" style="whiteSpace=wrap;html=1;fontSize=18;" parent="1" vertex="1">
                    <mxGeometry x="1321" y="1600" width="191" height="30" as="geometry"/>
                </mxCell>
                <mxCell id="90" value="Submit" style="whiteSpace=wrap;html=1;fontSize=12;fillColor=#004C99;" parent="1" vertex="1">
                    <mxGeometry x="1367" y="1660" width="100" height="30" as="geometry"/>
                </mxCell>
                <mxCell id="116" value="" style="html=1;verticalLabelPosition=bottom;align=center;labelBackgroundColor=#ffffff;verticalAlign=top;strokeWidth=2;strokeColor=#0080F0;shadow=0;dashed=0;shape=mxgraph.ios7.icons.calendar;fontSize=12;fillColor=#333333;" parent="1" vertex="1">
                    <mxGeometry x="1490" y="1607" width="15" height="18" as="geometry"/>
                </mxCell>
                <mxCell id="117" value="" style="whiteSpace=wrap;html=1;fillColor=none;" parent="1" vertex="1">
                    <mxGeometry x="61.5" y="2562" width="630" height="480" as="geometry"/>
                </mxCell>
                <mxCell id="118" value="Appointment Page (Patient's View)" style="text;html=1;align=center;verticalAlign=middle;resizable=0;points=[];autosize=1;strokeColor=none;fillColor=none;" parent="1" vertex="1">
                    <mxGeometry x="272.5" y="2540" width="210" height="30" as="geometry"/>
                </mxCell>
                <mxCell id="119" value="&lt;span style=&quot;font-size: 18px;&quot;&gt;Appointments&lt;/span&gt;" style="text;strokeColor=none;align=center;fillColor=none;html=1;verticalAlign=middle;whiteSpace=wrap;rounded=0;" parent="1" vertex="1">
                    <mxGeometry x="287.5" y="2622" width="160" height="40" as="geometry"/>
                </mxCell>
                <mxCell id="120" value="&lt;font style=&quot;font-size: 12px;&quot;&gt;Search&lt;/font&gt;" style="whiteSpace=wrap;html=1;fontSize=18;" parent="1" vertex="1">
                    <mxGeometry x="179.5" y="2672" width="370" height="30" as="geometry"/>
                </mxCell>
                <mxCell id="121" value="Nav Bar" style="whiteSpace=wrap;html=1;fontSize=12;fillColor=#333333;" parent="1" vertex="1">
                    <mxGeometry x="60.5" y="2562" width="630" height="30" as="geometry"/>
                </mxCell>
                <mxCell id="123" value="" style="whiteSpace=wrap;html=1;fontSize=12;fillColor=#004C99;" parent="1" vertex="1">
                    <mxGeometry x="559.5" y="2672" width="30" height="28" as="geometry"/>
                </mxCell>
                <mxCell id="124" value="&lt;font style=&quot;font-size: 12px;&quot;&gt;&lt;b&gt;Doctor's Name&lt;/b&gt;&lt;/font&gt;" style="text;strokeColor=none;align=center;fillColor=none;html=1;verticalAlign=middle;whiteSpace=wrap;rounded=0;fontSize=36;" parent="1" vertex="1">
                    <mxGeometry x="197.5" y="2736" width="110" height="40" as="geometry"/>
                </mxCell>
                <mxCell id="125" value="&lt;span style=&quot;font-size: 12px;&quot;&gt;&lt;b&gt;Description&lt;/b&gt;&lt;/span&gt;" style="text;strokeColor=none;align=center;fillColor=none;html=1;verticalAlign=middle;whiteSpace=wrap;rounded=0;fontSize=36;" parent="1" vertex="1">
                    <mxGeometry x="348.5" y="2736" width="110" height="40" as="geometry"/>
                </mxCell>
                <mxCell id="126" value="" style="endArrow=none;html=1;fontSize=12;" parent="1" edge="1">
                    <mxGeometry width="50" height="50" relative="1" as="geometry">
                        <mxPoint x="624.5" y="2776" as="sourcePoint"/>
                        <mxPoint x="144.5" y="2776" as="targetPoint"/>
                    </mxGeometry>
                </mxCell>
                <mxCell id="127" value="" style="whiteSpace=wrap;html=1;fontSize=12;fillColor=none;" parent="1" vertex="1">
                    <mxGeometry x="147" y="2786" width="475" height="40" as="geometry"/>
                </mxCell>
                <mxCell id="128" value="Appointment 1 Doctor" style="text;strokeColor=none;align=center;fillColor=none;html=1;verticalAlign=middle;whiteSpace=wrap;rounded=0;fontSize=12;" parent="1" vertex="1">
                    <mxGeometry x="197.5" y="2791" width="110" height="30" as="geometry"/>
                </mxCell>
                <mxCell id="129" value="Appointment 1 Description" style="text;strokeColor=none;align=center;fillColor=none;html=1;verticalAlign=middle;whiteSpace=wrap;rounded=0;fontSize=12;" parent="1" vertex="1">
                    <mxGeometry x="347.5" y="2791" width="110" height="30" as="geometry"/>
                </mxCell>
                <mxCell id="130" value="" style="whiteSpace=wrap;html=1;fontSize=12;fillColor=none;" parent="1" vertex="1">
                    <mxGeometry x="147" y="2846" width="475" height="40" as="geometry"/>
                </mxCell>
                <mxCell id="131" value="Appointment 2 Doctor" style="text;strokeColor=none;align=center;fillColor=none;html=1;verticalAlign=middle;whiteSpace=wrap;rounded=0;fontSize=12;" parent="1" vertex="1">
                    <mxGeometry x="197.5" y="2851" width="110" height="30" as="geometry"/>
                </mxCell>
                <mxCell id="132" value="Appointment 2 Description" style="text;strokeColor=none;align=center;fillColor=none;html=1;verticalAlign=middle;whiteSpace=wrap;rounded=0;fontSize=12;" parent="1" vertex="1">
                    <mxGeometry x="348.5" y="2851" width="110" height="30" as="geometry"/>
                </mxCell>
                <mxCell id="133" value="" style="html=1;verticalLabelPosition=bottom;align=center;labelBackgroundColor=#ffffff;verticalAlign=top;strokeWidth=2;strokeColor=#FFFFFF;shadow=0;dashed=0;shape=mxgraph.ios7.icons.looking_glass;fontSize=12;fillColor=none;" parent="1" vertex="1">
                    <mxGeometry x="567.5" y="2678.5" width="17" height="17" as="geometry"/>
                </mxCell>
                <mxCell id="134" value="&lt;span style=&quot;font-size: 12px;&quot;&gt;&lt;b&gt;Date&lt;/b&gt;&lt;/span&gt;" style="text;strokeColor=none;align=center;fillColor=none;html=1;verticalAlign=middle;whiteSpace=wrap;rounded=0;fontSize=36;" parent="1" vertex="1">
                    <mxGeometry x="487.5" y="2736" width="110" height="40" as="geometry"/>
                </mxCell>
                <mxCell id="135" value="Appointment 1 Date" style="text;strokeColor=none;align=center;fillColor=none;html=1;verticalAlign=middle;whiteSpace=wrap;rounded=0;fontSize=12;" parent="1" vertex="1">
                    <mxGeometry x="484.5" y="2791" width="110" height="30" as="geometry"/>
                </mxCell>
                <mxCell id="136" value="Appointment 2 Date" style="text;strokeColor=none;align=center;fillColor=none;html=1;verticalAlign=middle;whiteSpace=wrap;rounded=0;fontSize=12;" parent="1" vertex="1">
                    <mxGeometry x="484.5" y="2846" width="110" height="30" as="geometry"/>
                </mxCell>
                <mxCell id="137" value="&lt;b&gt;X&lt;/b&gt;" style="text;html=1;align=center;verticalAlign=middle;resizable=0;points=[];autosize=1;strokeColor=none;fillColor=none;fontSize=12;" parent="1" vertex="1">
                    <mxGeometry x="632.5" y="2793" width="30" height="30" as="geometry"/>
                </mxCell>
                <mxCell id="138" value="&lt;b&gt;X&lt;/b&gt;" style="text;html=1;align=center;verticalAlign=middle;resizable=0;points=[];autosize=1;strokeColor=none;fillColor=none;fontSize=12;" parent="1" vertex="1">
                    <mxGeometry x="632.5" y="2851" width="30" height="30" as="geometry"/>
                </mxCell>
                <mxCell id="139" value="" style="whiteSpace=wrap;html=1;fillColor=none;" parent="1" vertex="1">
                    <mxGeometry x="953.5" y="2562" width="630" height="480" as="geometry"/>
                </mxCell>
                <mxCell id="140" value="Appointment Page (Doctor's View)" style="text;html=1;align=center;verticalAlign=middle;resizable=0;points=[];autosize=1;strokeColor=none;fillColor=none;" parent="1" vertex="1">
                    <mxGeometry x="1164.5" y="2540" width="210" height="30" as="geometry"/>
                </mxCell>
                <mxCell id="141" value="&lt;span style=&quot;font-size: 18px;&quot;&gt;Appointments&lt;/span&gt;" style="text;strokeColor=none;align=center;fillColor=none;html=1;verticalAlign=middle;whiteSpace=wrap;rounded=0;" parent="1" vertex="1">
                    <mxGeometry x="1179.5" y="2622" width="160" height="40" as="geometry"/>
                </mxCell>
                <mxCell id="142" value="&lt;font style=&quot;font-size: 12px;&quot;&gt;Search&lt;/font&gt;" style="whiteSpace=wrap;html=1;fontSize=18;" parent="1" vertex="1">
                    <mxGeometry x="1071.5" y="2672" width="370" height="30" as="geometry"/>
                </mxCell>
                <mxCell id="143" value="Nav Bar" style="whiteSpace=wrap;html=1;fontSize=12;fillColor=#333333;" parent="1" vertex="1">
                    <mxGeometry x="952.5" y="2562" width="630" height="30" as="geometry"/>
                </mxCell>
                <mxCell id="144" value="" style="whiteSpace=wrap;html=1;fontSize=12;fillColor=#004C99;" parent="1" vertex="1">
                    <mxGeometry x="1451.5" y="2672" width="30" height="28" as="geometry"/>
                </mxCell>
                <mxCell id="145" value="&lt;font style=&quot;font-size: 12px;&quot;&gt;&lt;b&gt;Patient's Name&lt;/b&gt;&lt;/font&gt;" style="text;strokeColor=none;align=center;fillColor=none;html=1;verticalAlign=middle;whiteSpace=wrap;rounded=0;fontSize=36;" parent="1" vertex="1">
                    <mxGeometry x="1089.5" y="2736" width="110" height="40" as="geometry"/>
                </mxCell>
                <mxCell id="146" value="&lt;span style=&quot;font-size: 12px;&quot;&gt;&lt;b&gt;Description&lt;/b&gt;&lt;/span&gt;" style="text;strokeColor=none;align=center;fillColor=none;html=1;verticalAlign=middle;whiteSpace=wrap;rounded=0;fontSize=36;" parent="1" vertex="1">
                    <mxGeometry x="1240.5" y="2736" width="110" height="40" as="geometry"/>
                </mxCell>
                <mxCell id="147" value="" style="endArrow=none;html=1;fontSize=12;" parent="1" edge="1">
                    <mxGeometry width="50" height="50" relative="1" as="geometry">
                        <mxPoint x="1516.5" y="2776" as="sourcePoint"/>
                        <mxPoint x="1036.5" y="2776" as="targetPoint"/>
                    </mxGeometry>
                </mxCell>
                <mxCell id="148" value="" style="whiteSpace=wrap;html=1;fontSize=12;fillColor=none;" parent="1" vertex="1">
                    <mxGeometry x="1039" y="2786" width="475" height="40" as="geometry"/>
                </mxCell>
                <mxCell id="149" value="Appointment 1 Patient" style="text;strokeColor=none;align=center;fillColor=none;html=1;verticalAlign=middle;whiteSpace=wrap;rounded=0;fontSize=12;" parent="1" vertex="1">
                    <mxGeometry x="1089.5" y="2791" width="110" height="30" as="geometry"/>
                </mxCell>
                <mxCell id="150" value="Appointment 1 Description" style="text;strokeColor=none;align=center;fillColor=none;html=1;verticalAlign=middle;whiteSpace=wrap;rounded=0;fontSize=12;" parent="1" vertex="1">
                    <mxGeometry x="1239.5" y="2791" width="110" height="30" as="geometry"/>
                </mxCell>
                <mxCell id="151" value="" style="whiteSpace=wrap;html=1;fontSize=12;fillColor=none;" parent="1" vertex="1">
                    <mxGeometry x="1039" y="2846" width="475" height="40" as="geometry"/>
                </mxCell>
                <mxCell id="152" value="Appointment 2 Patient" style="text;strokeColor=none;align=center;fillColor=none;html=1;verticalAlign=middle;whiteSpace=wrap;rounded=0;fontSize=12;" parent="1" vertex="1">
                    <mxGeometry x="1089.5" y="2851" width="110" height="30" as="geometry"/>
                </mxCell>
                <mxCell id="153" value="Appointment 2 Description" style="text;strokeColor=none;align=center;fillColor=none;html=1;verticalAlign=middle;whiteSpace=wrap;rounded=0;fontSize=12;" parent="1" vertex="1">
                    <mxGeometry x="1240.5" y="2851" width="110" height="30" as="geometry"/>
                </mxCell>
                <mxCell id="154" value="" style="html=1;verticalLabelPosition=bottom;align=center;labelBackgroundColor=#ffffff;verticalAlign=top;strokeWidth=2;strokeColor=#FFFFFF;shadow=0;dashed=0;shape=mxgraph.ios7.icons.looking_glass;fontSize=12;fillColor=none;" parent="1" vertex="1">
                    <mxGeometry x="1459.5" y="2678.5" width="17" height="17" as="geometry"/>
                </mxCell>
                <mxCell id="155" value="&lt;span style=&quot;font-size: 12px;&quot;&gt;&lt;b&gt;Date&lt;/b&gt;&lt;/span&gt;" style="text;strokeColor=none;align=center;fillColor=none;html=1;verticalAlign=middle;whiteSpace=wrap;rounded=0;fontSize=36;" parent="1" vertex="1">
                    <mxGeometry x="1379.5" y="2736" width="110" height="40" as="geometry"/>
                </mxCell>
                <mxCell id="156" value="Appointment 1 Date" style="text;strokeColor=none;align=center;fillColor=none;html=1;verticalAlign=middle;whiteSpace=wrap;rounded=0;fontSize=12;" parent="1" vertex="1">
                    <mxGeometry x="1376.5" y="2791" width="110" height="30" as="geometry"/>
                </mxCell>
                <mxCell id="157" value="Appointment 2 Date" style="text;strokeColor=none;align=center;fillColor=none;html=1;verticalAlign=middle;whiteSpace=wrap;rounded=0;fontSize=12;" parent="1" vertex="1">
                    <mxGeometry x="1376.5" y="2846" width="110" height="30" as="geometry"/>
                </mxCell>
                <mxCell id="158" value="&lt;b&gt;X&lt;/b&gt;" style="text;html=1;align=center;verticalAlign=middle;resizable=0;points=[];autosize=1;strokeColor=none;fillColor=none;fontSize=12;" parent="1" vertex="1">
                    <mxGeometry x="1524.5" y="2793" width="30" height="30" as="geometry"/>
                </mxCell>
                <mxCell id="159" value="&lt;b&gt;X&lt;/b&gt;" style="text;html=1;align=center;verticalAlign=middle;resizable=0;points=[];autosize=1;strokeColor=none;fillColor=none;fontSize=12;" parent="1" vertex="1">
                    <mxGeometry x="1524.5" y="2851" width="30" height="30" as="geometry"/>
                </mxCell>
                <mxCell id="160" value="&lt;font style=&quot;font-size: 24px;&quot;&gt;Note Page (After Clicking on any appointment)&lt;/font&gt;" style="text;html=1;align=center;verticalAlign=middle;resizable=0;points=[];autosize=1;strokeColor=none;fillColor=none;fontSize=12;" parent="1" vertex="1">
                    <mxGeometry x="565" y="3509" width="520" height="40" as="geometry"/>
                </mxCell>
                <mxCell id="161" value="" style="whiteSpace=wrap;html=1;fillColor=none;" parent="1" vertex="1">
                    <mxGeometry x="104.5" y="3622" width="630" height="480" as="geometry"/>
                </mxCell>
                <mxCell id="162" value="Note Page (Patient's View)" style="text;html=1;align=center;verticalAlign=middle;resizable=0;points=[];autosize=1;strokeColor=none;fillColor=none;" parent="1" vertex="1">
                    <mxGeometry x="335.5" y="3600" width="170" height="30" as="geometry"/>
                </mxCell>
                <mxCell id="163" value="&lt;span style=&quot;font-size: 18px;&quot;&gt;Appointment with &amp;lt;Doctor Name&amp;gt;&lt;/span&gt;" style="text;strokeColor=none;align=center;fillColor=none;html=1;verticalAlign=middle;whiteSpace=wrap;rounded=0;" parent="1" vertex="1">
                    <mxGeometry x="278.5" y="3677" width="288.5" height="40" as="geometry"/>
                </mxCell>
                <mxCell id="165" value="Nav Bar" style="whiteSpace=wrap;html=1;fontSize=12;fillColor=#333333;" parent="1" vertex="1">
                    <mxGeometry x="103.5" y="3622" width="630" height="30" as="geometry"/>
                </mxCell>
                <mxCell id="167" value="&lt;font style=&quot;font-size: 12px;&quot;&gt;&lt;b&gt;Title&lt;/b&gt;&lt;/font&gt;" style="text;strokeColor=none;align=center;fillColor=none;html=1;verticalAlign=middle;whiteSpace=wrap;rounded=0;fontSize=36;" parent="1" vertex="1">
                    <mxGeometry x="229.5" y="3752" width="110" height="40" as="geometry"/>
                </mxCell>
                <mxCell id="168" value="&lt;span style=&quot;font-size: 12px;&quot;&gt;&lt;b&gt;Description&lt;/b&gt;&lt;/span&gt;" style="text;strokeColor=none;align=center;fillColor=none;html=1;verticalAlign=middle;whiteSpace=wrap;rounded=0;fontSize=36;" parent="1" vertex="1">
                    <mxGeometry x="380.5" y="3752" width="110" height="40" as="geometry"/>
                </mxCell>
                <mxCell id="169" value="" style="endArrow=none;html=1;fontSize=12;" parent="1" edge="1">
                    <mxGeometry width="50" height="50" relative="1" as="geometry">
                        <mxPoint x="656.5" y="3792" as="sourcePoint"/>
                        <mxPoint x="176.5" y="3792" as="targetPoint"/>
                    </mxGeometry>
                </mxCell>
                <mxCell id="170" value="" style="whiteSpace=wrap;html=1;fontSize=12;fillColor=none;" parent="1" vertex="1">
                    <mxGeometry x="179" y="3802" width="475" height="40" as="geometry"/>
                </mxCell>
                <mxCell id="171" value="Note 1 Title" style="text;strokeColor=none;align=center;fillColor=none;html=1;verticalAlign=middle;whiteSpace=wrap;rounded=0;fontSize=12;" parent="1" vertex="1">
                    <mxGeometry x="229.5" y="3807" width="110" height="30" as="geometry"/>
                </mxCell>
                <mxCell id="172" value="Note 1 Description" style="text;strokeColor=none;align=center;fillColor=none;html=1;verticalAlign=middle;whiteSpace=wrap;rounded=0;fontSize=12;" parent="1" vertex="1">
                    <mxGeometry x="379.5" y="3807" width="110" height="30" as="geometry"/>
                </mxCell>
                <mxCell id="173" value="" style="whiteSpace=wrap;html=1;fontSize=12;fillColor=none;" parent="1" vertex="1">
                    <mxGeometry x="179" y="3862" width="475" height="40" as="geometry"/>
                </mxCell>
                <mxCell id="174" value="Note 2 Title" style="text;strokeColor=none;align=center;fillColor=none;html=1;verticalAlign=middle;whiteSpace=wrap;rounded=0;fontSize=12;" parent="1" vertex="1">
                    <mxGeometry x="229.5" y="3867" width="110" height="30" as="geometry"/>
                </mxCell>
                <mxCell id="175" value="Note 2 Description" style="text;strokeColor=none;align=center;fillColor=none;html=1;verticalAlign=middle;whiteSpace=wrap;rounded=0;fontSize=12;" parent="1" vertex="1">
                    <mxGeometry x="380.5" y="3867" width="110" height="30" as="geometry"/>
                </mxCell>
                <mxCell id="177" value="&lt;span style=&quot;font-size: 12px;&quot;&gt;&lt;b&gt;Created Date&lt;/b&gt;&lt;/span&gt;" style="text;strokeColor=none;align=center;fillColor=none;html=1;verticalAlign=middle;whiteSpace=wrap;rounded=0;fontSize=36;" parent="1" vertex="1">
                    <mxGeometry x="519.5" y="3752" width="110" height="40" as="geometry"/>
                </mxCell>
                <mxCell id="178" value="Note 1 Created Date" style="text;strokeColor=none;align=center;fillColor=none;html=1;verticalAlign=middle;whiteSpace=wrap;rounded=0;fontSize=12;" parent="1" vertex="1">
                    <mxGeometry x="516.5" y="3807" width="110" height="30" as="geometry"/>
                </mxCell>
                <mxCell id="179" value="Note 2 Created Date" style="text;strokeColor=none;align=center;fillColor=none;html=1;verticalAlign=middle;whiteSpace=wrap;rounded=0;fontSize=12;" parent="1" vertex="1">
                    <mxGeometry x="516.5" y="3866" width="110" height="30" as="geometry"/>
                </mxCell>
                <mxCell id="182" value="" style="whiteSpace=wrap;html=1;fillColor=none;" parent="1" vertex="1">
                    <mxGeometry x="996.5" y="3622" width="630" height="480" as="geometry"/>
                </mxCell>
                <mxCell id="183" value="Note Page (Doctor's View)" style="text;html=1;align=center;verticalAlign=middle;resizable=0;points=[];autosize=1;strokeColor=none;fillColor=none;" parent="1" vertex="1">
                    <mxGeometry x="1232.5" y="3600" width="160" height="30" as="geometry"/>
                </mxCell>
                <mxCell id="186" value="Nav Bar" style="whiteSpace=wrap;html=1;fontSize=12;fillColor=#333333;" parent="1" vertex="1">
                    <mxGeometry x="995.5" y="3622" width="630" height="30" as="geometry"/>
                </mxCell>
                <mxCell id="188" value="&lt;b style=&quot;font-size: 12px;&quot;&gt;Title&lt;/b&gt;" style="text;strokeColor=none;align=center;fillColor=none;html=1;verticalAlign=middle;whiteSpace=wrap;rounded=0;fontSize=36;" parent="1" vertex="1">
                    <mxGeometry x="1132.5" y="3796" width="110" height="40" as="geometry"/>
                </mxCell>
                <mxCell id="189" value="&lt;span style=&quot;font-size: 12px;&quot;&gt;&lt;b&gt;Description&lt;/b&gt;&lt;/span&gt;" style="text;strokeColor=none;align=center;fillColor=none;html=1;verticalAlign=middle;whiteSpace=wrap;rounded=0;fontSize=36;" parent="1" vertex="1">
                    <mxGeometry x="1283.5" y="3796" width="110" height="40" as="geometry"/>
                </mxCell>
                <mxCell id="190" value="" style="endArrow=none;html=1;fontSize=12;" parent="1" edge="1">
                    <mxGeometry width="50" height="50" relative="1" as="geometry">
                        <mxPoint x="1559.5" y="3836" as="sourcePoint"/>
                        <mxPoint x="1079.5" y="3836" as="targetPoint"/>
                    </mxGeometry>
                </mxCell>
                <mxCell id="191" value="" style="whiteSpace=wrap;html=1;fontSize=12;fillColor=none;" parent="1" vertex="1">
                    <mxGeometry x="1082" y="3846" width="475" height="40" as="geometry"/>
                </mxCell>
                <mxCell id="192" value="Note 1 Title" style="text;strokeColor=none;align=center;fillColor=none;html=1;verticalAlign=middle;whiteSpace=wrap;rounded=0;fontSize=12;" parent="1" vertex="1">
                    <mxGeometry x="1132.5" y="3851" width="110" height="30" as="geometry"/>
                </mxCell>
                <mxCell id="193" value="Note 1 Description" style="text;strokeColor=none;align=center;fillColor=none;html=1;verticalAlign=middle;whiteSpace=wrap;rounded=0;fontSize=12;" parent="1" vertex="1">
                    <mxGeometry x="1282.5" y="3851" width="110" height="30" as="geometry"/>
                </mxCell>
                <mxCell id="194" value="" style="whiteSpace=wrap;html=1;fontSize=12;fillColor=none;" parent="1" vertex="1">
                    <mxGeometry x="1082" y="3906" width="475" height="40" as="geometry"/>
                </mxCell>
                <mxCell id="195" value="Note 2 Title" style="text;strokeColor=none;align=center;fillColor=none;html=1;verticalAlign=middle;whiteSpace=wrap;rounded=0;fontSize=12;" parent="1" vertex="1">
                    <mxGeometry x="1132.5" y="3911" width="110" height="30" as="geometry"/>
                </mxCell>
                <mxCell id="196" value="Note 2 Description" style="text;strokeColor=none;align=center;fillColor=none;html=1;verticalAlign=middle;whiteSpace=wrap;rounded=0;fontSize=12;" parent="1" vertex="1">
                    <mxGeometry x="1283.5" y="3911" width="110" height="30" as="geometry"/>
                </mxCell>
                <mxCell id="198" value="&lt;b style=&quot;font-size: 12px;&quot;&gt;Created Date&lt;/b&gt;" style="text;strokeColor=none;align=center;fillColor=none;html=1;verticalAlign=middle;whiteSpace=wrap;rounded=0;fontSize=36;" parent="1" vertex="1">
                    <mxGeometry x="1422.5" y="3796" width="110" height="40" as="geometry"/>
                </mxCell>
                <mxCell id="199" value="Note 1 Created Date" style="text;strokeColor=none;align=center;fillColor=none;html=1;verticalAlign=middle;whiteSpace=wrap;rounded=0;fontSize=12;" parent="1" vertex="1">
                    <mxGeometry x="1419.5" y="3851" width="110" height="30" as="geometry"/>
                </mxCell>
                <mxCell id="200" value="Note 2 Created Date" style="text;strokeColor=none;align=center;fillColor=none;html=1;verticalAlign=middle;whiteSpace=wrap;rounded=0;fontSize=12;" parent="1" vertex="1">
                    <mxGeometry x="1420.5" y="3910" width="110" height="30" as="geometry"/>
                </mxCell>
                <mxCell id="201" value="&lt;b&gt;X&lt;/b&gt;" style="text;html=1;align=center;verticalAlign=middle;resizable=0;points=[];autosize=1;strokeColor=none;fillColor=none;fontSize=12;" parent="1" vertex="1">
                    <mxGeometry x="1567.5" y="3853" width="30" height="30" as="geometry"/>
                </mxCell>
                <mxCell id="202" value="&lt;b&gt;X&lt;/b&gt;" style="text;html=1;align=center;verticalAlign=middle;resizable=0;points=[];autosize=1;strokeColor=none;fillColor=none;fontSize=12;" parent="1" vertex="1">
                    <mxGeometry x="1567.5" y="3911" width="30" height="30" as="geometry"/>
                </mxCell>
                <mxCell id="203" value="&lt;font style=&quot;font-size: 11px;&quot;&gt;Date&lt;/font&gt;" style="text;strokeColor=none;align=center;fillColor=none;html=1;verticalAlign=middle;whiteSpace=wrap;rounded=0;" parent="1" vertex="1">
                    <mxGeometry x="384" y="3708" width="82.5" height="24" as="geometry"/>
                </mxCell>
                <mxCell id="208" value="&lt;span style=&quot;font-size: 18px;&quot;&gt;Appointment with &amp;lt;Patient Name&amp;gt;&lt;/span&gt;" style="text;strokeColor=none;align=center;fillColor=none;html=1;verticalAlign=middle;whiteSpace=wrap;rounded=0;" parent="1" vertex="1">
                    <mxGeometry x="1166.25" y="3677" width="288.5" height="40" as="geometry"/>
                </mxCell>
                <mxCell id="209" value="&lt;font style=&quot;font-size: 12px;&quot;&gt;Title&lt;/font&gt;" style="whiteSpace=wrap;html=1;fontSize=18;" parent="1" vertex="1">
                    <mxGeometry x="1107.25" y="3746" width="130.5" height="30" as="geometry"/>
                </mxCell>
                <mxCell id="210" value="" style="whiteSpace=wrap;html=1;fontSize=12;fillColor=#004C99;" parent="1" vertex="1">
                    <mxGeometry x="1517.75" y="3746" width="30" height="28" as="geometry"/>
                </mxCell>
                <mxCell id="211" value="" style="html=1;verticalLabelPosition=bottom;align=center;labelBackgroundColor=#ffffff;verticalAlign=top;strokeWidth=2;strokeColor=#FFFFFF;shadow=0;dashed=0;shape=mxgraph.ios7.icons.looking_glass;fontSize=12;fillColor=none;" parent="1" vertex="1">
                    <mxGeometry x="1525.75" y="3752.5" width="17" height="17" as="geometry"/>
                </mxCell>
                <mxCell id="212" value="&lt;font style=&quot;font-size: 11px;&quot;&gt;Date&lt;/font&gt;" style="text;strokeColor=none;align=center;fillColor=none;html=1;verticalAlign=middle;whiteSpace=wrap;rounded=0;" parent="1" vertex="1">
                    <mxGeometry x="1271.75" y="3708" width="82.5" height="24" as="geometry"/>
                </mxCell>
                <mxCell id="213" value="&lt;font style=&quot;font-size: 12px;&quot;&gt;Description&lt;/font&gt;" style="whiteSpace=wrap;html=1;fontSize=18;" parent="1" vertex="1">
                    <mxGeometry x="1247.75" y="3746" width="220" height="30" as="geometry"/>
                </mxCell>
                <mxCell id="214" value="" style="whiteSpace=wrap;html=1;fontSize=12;fillColor=#004C99;" parent="1" vertex="1">
                    <mxGeometry x="1477.25" y="3746" width="30" height="28" as="geometry"/>
                </mxCell>
                <mxCell id="215" value="" style="shape=cross;whiteSpace=wrap;html=1;strokeColor=#FFFFFF;fontSize=11;fillColor=#FFFFFF;" parent="1" vertex="1">
                    <mxGeometry x="1482.25" y="3749.5" width="20" height="20" as="geometry"/>
                </mxCell>
                <mxCell id="216" value="" style="whiteSpace=wrap;html=1;fillColor=none;" parent="1" vertex="1">
                    <mxGeometry x="927" y="610" width="630" height="480" as="geometry"/>
                </mxCell>
                <mxCell id="217" value="Dashboard" style="text;html=1;align=center;verticalAlign=middle;resizable=0;points=[];autosize=1;strokeColor=none;fillColor=none;" parent="1" vertex="1">
                    <mxGeometry x="1203" y="590" width="80" height="30" as="geometry"/>
                </mxCell>
                <mxCell id="218" value="&lt;font style=&quot;font-size: 18px;&quot;&gt;Dashboard&lt;/font&gt;" style="text;strokeColor=none;align=center;fillColor=none;html=1;verticalAlign=middle;whiteSpace=wrap;rounded=0;" parent="1" vertex="1">
                    <mxGeometry x="1163" y="716" width="160" height="40" as="geometry"/>
                </mxCell>
                <mxCell id="220" value="Nav Bar" style="whiteSpace=wrap;html=1;fontSize=12;fillColor=#333333;" parent="1" vertex="1">
                    <mxGeometry x="926" y="610" width="630" height="30" as="geometry"/>
                </mxCell>
                <mxCell id="221" value="" style="whiteSpace=wrap;html=1;fontSize=18;" parent="1" vertex="1">
                    <mxGeometry x="1284" y="800" width="148" height="142" as="geometry"/>
                </mxCell>
                <mxCell id="224" value="" style="whiteSpace=wrap;html=1;fontSize=18;" parent="1" vertex="1">
                    <mxGeometry x="1059.5" y="800" width="148" height="142" as="geometry"/>
                </mxCell>
                <mxCell id="225" value="Related Image" style="whiteSpace=wrap;html=1;strokeColor=#FFFFFF;fontSize=11;fillColor=#4D4D4D;" parent="1" vertex="1">
                    <mxGeometry x="1099" y="819" width="70" height="90" as="geometry"/>
                </mxCell>
                <mxCell id="226" value="Related Image" style="whiteSpace=wrap;html=1;strokeColor=#FFFFFF;fontSize=11;fillColor=#4D4D4D;" parent="1" vertex="1">
                    <mxGeometry x="1326" y="819" width="70" height="90" as="geometry"/>
                </mxCell>
                <mxCell id="227" value="Channel Your Doctor" style="text;strokeColor=none;align=center;fillColor=none;html=1;verticalAlign=middle;whiteSpace=wrap;rounded=0;fontSize=11;" parent="1" vertex="1">
                    <mxGeometry x="1079.5" y="911" width="113" height="30" as="geometry"/>
                </mxCell>
                <mxCell id="229" value="View Your Appointments" style="text;strokeColor=none;align=center;fillColor=none;html=1;verticalAlign=middle;whiteSpace=wrap;rounded=0;fontSize=11;" parent="1" vertex="1">
                    <mxGeometry x="1295" y="911" width="130" height="30" as="geometry"/>
                </mxCell>
            </root>
        </mxGraphModel>
    </diagram>
</mxfile>